<svg xmlns="http://www.w3.org/2000/svg" viewBox="0 0 1609.8 651" width="1609.8" height="651" style="--bg:#0e0e0e;--fg:#ffffff;--line:#33d17a;background:var(--bg)">
<style>
  @import url('https://fonts.googleapis.com/css2?family=Inter:wght@400;500;600;700&amp;display=swap');
  text { font-family: 'Inter', system-ui, sans-serif; }
  svg {
    /* Derived from --bg and --fg (overridable via --line, --accent, etc.) */
    --_text:          var(--fg);
    --_text-sec:      var(--muted, color-mix(in srgb, var(--fg) 60%, var(--bg)));
    --_text-muted:    var(--muted, color-mix(in srgb, var(--fg) 40%, var(--bg)));
    --_text-faint:    color-mix(in srgb, var(--fg) 25%, var(--bg));
    --_line:          var(--line, color-mix(in srgb, var(--fg) 30%, var(--bg)));
    --_arrow:         var(--accent, color-mix(in srgb, var(--fg) 50%, var(--bg)));
    --_node-fill:     var(--surface, color-mix(in srgb, var(--fg) 3%, var(--bg)));
    --_node-stroke:   var(--border, color-mix(in srgb, var(--fg) 20%, var(--bg)));
    --_group-fill:    var(--bg);
    --_group-hdr:     color-mix(in srgb, var(--fg) 5%, var(--bg));
    --_inner-stroke:  color-mix(in srgb, var(--fg) 12%, var(--bg));
    --_key-badge:     color-mix(in srgb, var(--fg) 10%, var(--bg));
  }
</style>
<defs>
  <marker id="arrowhead" markerWidth="8" markerHeight="4.8" refX="8" refY="2.4" orient="auto">
    <polygon points="0 0, 8 2.4, 0 4.8" fill="var(--_arrow)" />
  </marker>
  <marker id="arrowhead-start" markerWidth="8" markerHeight="4.8" refX="0" refY="2.4" orient="auto-start-reverse">
    <polygon points="8 0, 0 2.4, 8 4.8" fill="var(--_arrow)" />
  </marker>
</defs>
<rect x="40" y="40" width="680.25" height="571" rx="0" ry="0" fill="var(--_group-fill)" stroke="var(--_node-stroke)" stroke-width="1" />
<rect x="40" y="40" width="680.25" height="28" rx="0" ry="0" fill="var(--_group-hdr)" stroke="var(--_node-stroke)" stroke-width="1" />
<text x="52" y="54" dy="0.35em" font-size="12" font-weight="600" fill="var(--_text-sec)">&quot;Legacy: The Monolith&quot;</text>
<rect x="744.2500000000001" y="184.5" width="825.55" height="282" rx="0" ry="0" fill="var(--_group-fill)" stroke="var(--_node-stroke)" stroke-width="1" />
<rect x="744.2500000000001" y="184.5" width="825.55" height="28" rx="0" ry="0" fill="var(--_group-hdr)" stroke="var(--_node-stroke)" stroke-width="1" />
<text x="756.2500000000001" y="198.5" dy="0.35em" font-size="12" font-weight="600" fill="var(--_text-sec)">&quot;SurgeClaw: The Enterprise Swarm&quot;</text>
<polyline points="171.50130158151885,513.7432980801816 171.50130158151885,543 161.4625,543 161.4625,563" fill="none" stroke="var(--_line)" stroke-width="0.75" stroke-dasharray="4 4" marker-end="url(#arrowhead)" />
<polyline points="282.4986984184812,513.7432980801816 282.4986984184812,543 292.5375,543 292.5375,563" fill="none" stroke="var(--_line)" stroke-width="0.75" stroke-dasharray="4 4" marker-end="url(#arrowhead)" />
<polyline points="259.94527471632296,184.20366847315756 259.94527471632296,152.5 266.17,152.5 266.17,106 328.8,106" fill="none" stroke="var(--_line)" stroke-width="0.75" stroke-dasharray="4 4" marker-end="url(#arrowhead)" />
<polyline points="227,124 227,152.5 187.83,152.5 187.83,184.20366847315756 194.0547252836771,184.20366847315756" fill="none" stroke="var(--_line)" stroke-width="0.75" stroke-dasharray="4 4" marker-end="url(#arrowhead)" />
<polyline points="951.4250000000002,268.5 951.4250000000002,297 876.9500000000002,297 876.9500000000002,325.5" fill="none" stroke="var(--_line)" stroke-width="0.75" marker-end="url(#arrowhead)" />
<polyline points="951.4250000000002,268.5 951.4250000000002,297 1025.9,297 1025.9,325.5" fill="none" stroke="var(--_line)" stroke-width="0.75" marker-end="url(#arrowhead)" />
<polyline points="951.4250000000002,268.5 951.4250000000002,297 1189.15,297 1189.15,325.5" fill="none" stroke="var(--_line)" stroke-width="0.75" marker-end="url(#arrowhead)" />
<polyline points="876.9500000000002,361.5 876.9500000000002,418.5" fill="none" stroke="var(--_line)" stroke-width="0.75" marker-end="url(#arrowhead)" />
<polyline points="1025.9,361.5 1025.9,418.5" fill="none" stroke="var(--_line)" stroke-width="0.75" marker-end="url(#arrowhead)" />
<polyline points="1189.15,361.5 1189.15,418.5" fill="none" stroke="var(--_line)" stroke-width="0.75" stroke-dasharray="4 4" marker-end="url(#arrowhead)" />
<rect x="125.49000000000001" y="139" width="124.68" height="27" rx="4" ry="4" fill="var(--bg)" stroke="var(--_inner-stroke)" stroke-width="0.5" />
<text x="187.83" y="152.5" text-anchor="middle" dy="0.35em" font-size="11" font-weight="400" fill="var(--_text-muted)">Test Crashes System</text>
<rect x="848.9300000000002" y="283.5" width="56.04" height="27" rx="4" ry="4" fill="var(--bg)" stroke="var(--_inner-stroke)" stroke-width="0.5" />
<text x="876.9500000000002" y="297" text-anchor="middle" dy="0.35em" font-size="11" font-weight="400" fill="var(--_text-muted)">Vault A</text>
<rect x="997.8800000000001" y="283.5" width="56.04" height="27" rx="4" ry="4" fill="var(--bg)" stroke="var(--_inner-stroke)" stroke-width="0.5" />
<text x="1025.9" y="297" text-anchor="middle" dy="0.35em" font-size="11" font-weight="400" fill="var(--_text-muted)">Vault B</text>
<rect x="1161.13" y="283.5" width="56.04" height="27" rx="4" ry="4" fill="var(--bg)" stroke="var(--_inner-stroke)" stroke-width="0.5" />
<text x="1189.15" y="297" text-anchor="middle" dy="0.35em" font-size="11" font-weight="400" fill="var(--_text-muted)">Vault C</text>
<rect x="1123.95" y="376.5" width="130.4" height="27" rx="4" ry="4" fill="var(--bg)" stroke="var(--_inner-stroke)" stroke-width="0.5" />
<text x="1189.15" y="390" text-anchor="middle" dy="0.35em" font-size="11" font-weight="400" fill="var(--_text-muted)">Test Crashes Sandbox</text>
<circle cx="227" cy="352" r="171" fill="#4a1515" stroke="#ff4444" stroke-width="2px;" />
<rect x="113.2875" y="563" width="96.35000000000001" height="36" rx="0" ry="0" fill="var(--_node-fill)" stroke="var(--_node-stroke)" stroke-width="0.75" />
<rect x="233.63750000000002" y="563" width="117.80000000000001" height="36" rx="0" ry="0" fill="var(--_node-fill)" stroke="var(--_node-stroke)" stroke-width="0.75" />
<rect x="125.19999999999999" y="88" width="203.60000000000002" height="36" rx="0" ry="0" fill="var(--_node-fill)" stroke="var(--_node-stroke)" stroke-width="0.75" />
<polygon points="364.8,88 704.25,88 704.25,124 364.8,124 352.8,106" fill="var(--_node-fill)" stroke="var(--_node-stroke)" stroke-width="0.75" />
<rect x="760.2500000000001" y="232.5" width="382.35" height="36" rx="0" ry="0" fill="#114a40" stroke="#33d17a" stroke-width="2px;" />
<rect x="821.6250000000001" y="325.5" width="110.65" height="36" rx="0" ry="0" fill="#0b2e27" stroke="#26a269" stroke-width="2px;" />
<rect x="956.2750000000001" y="325.5" width="139.25" height="36" rx="0" ry="0" fill="#0b2e27" stroke="#26a269" stroke-width="2px;" />
<rect x="1119.525" y="325.5" width="139.25" height="36" rx="0" ry="0" fill="#0b2e27" stroke="#26a269" stroke-width="2px;" />
<rect x="825.2000000000002" y="418.5" width="103.5" height="36" rx="0" ry="0" fill="var(--_node-fill)" stroke="var(--_node-stroke)" stroke-width="0.75" />
<rect x="974.1500000000001" y="418.5" width="103.5" height="36" rx="0" ry="0" fill="var(--_node-fill)" stroke="var(--_node-stroke)" stroke-width="0.75" />
<rect x="1140.9750000000001" y="418.5" width="96.35000000000001" height="36" rx="0" ry="0" fill="var(--_node-fill)" stroke="var(--_node-stroke)" stroke-width="0.75" />
<polygon points="1178.6000000000001,232.5 1553.8000000000002,232.5 1553.8000000000002,268.5 1178.6000000000001,268.5 1166.6000000000001,250.5" fill="var(--_node-fill)" stroke="var(--_node-stroke)" stroke-width="0.75" />
<text x="227" y="352" text-anchor="middle" dy="0.35em" font-size="13" font-weight="500" fill="#fff">&quot;Single OpenClaw\n(Shared Memory &amp; Ports)&quot;</text>
<text x="161.4625" y="581" text-anchor="middle" dy="0.35em" font-size="13" font-weight="500" fill="var(--_text)">CEO Tasks</text>
<text x="292.5375" y="581" text-anchor="middle" dy="0.35em" font-size="13" font-weight="500" fill="var(--_text)">Live Finance</text>
<text x="227" y="106" text-anchor="middle" dy="0.35em" font-size="13" font-weight="500" fill="var(--_text)">Experimental Plugin Test</text>
<text x="528.5250000000001" y="106" text-anchor="middle" dy="0.35em" font-size="13" font-weight="500" fill="var(--_text)">High Risk, Zero Audit Trail, Shared Secrets</text>
<text x="951.4250000000002" y="250.5" text-anchor="middle" dy="0.35em" font-size="13" font-weight="500" fill="#fff">&quot;SurgeClaw Sentinel\n(Audit Ledger &amp; Governance)&quot;</text>
<text x="876.9500000000002" y="343.5" text-anchor="middle" dy="0.35em" font-size="13" font-weight="500" fill="#fff">&quot;CEO Agent&quot;</text>
<text x="1025.9" y="343.5" text-anchor="middle" dy="0.35em" font-size="13" font-weight="500" fill="#fff">&quot;Finance Agent&quot;</text>
<text x="1189.15" y="343.5" text-anchor="middle" dy="0.35em" font-size="13" font-weight="500" fill="#fff">&quot;Testing Agent&quot;</text>
<text x="876.9500000000002" y="436.5" text-anchor="middle" dy="0.35em" font-size="13" font-weight="500" fill="var(--_text)">Operations</text>
<text x="1025.9" y="436.5" text-anchor="middle" dy="0.35em" font-size="13" font-weight="500" fill="var(--_text)">Accounting</text>
<text x="1189.15" y="436.5" text-anchor="middle" dy="0.35em" font-size="13" font-weight="500" fill="var(--_text)">Beta Test</text>
<text x="1360.2000000000003" y="250.5" text-anchor="middle" dy="0.35em" font-size="13" font-weight="500" fill="var(--_text)">Isolated Failures, SOX/SOC 2 Auditable, Scalable</text>
</svg>